<svg id="svg" version="1.1" xmlns="http://www.w3.org/2000/svg" xmlns:xlink="http://www.w3.org/1999/xlink" width="400" height="400" viewBox="0, 0, 400,400"><g id="svgg"><path id="path0" d="M182.200 37.851 C 175.460 38.713,170.609 40.352,161.781 44.750 C 159.570 45.851,156.600 47.418,155.181 48.232 C 153.761 49.045,152.232 49.911,151.783 50.156 C 151.334 50.400,150.434 51.012,149.783 51.516 C 149.132 52.019,147.250 53.453,145.600 54.702 C 138.346 60.193,131.291 69.619,127.115 79.400 C 126.457 80.940,125.689 82.740,125.408 83.400 C 125.127 84.060,124.592 85.500,124.218 86.600 C 123.844 87.700,123.389 88.960,123.206 89.400 C 123.024 89.840,122.569 91.370,122.195 92.800 C 121.820 94.230,121.378 95.580,121.211 95.800 C 121.044 96.020,120.799 96.920,120.665 97.800 C 120.532 98.680,120.141 100.660,119.798 102.200 C 118.414 108.405,117.915 116.782,118.259 128.000 C 118.438 133.830,118.587 140.355,118.592 142.500 L 118.600 146.400 116.961 147.900 C 114.191 150.435,112.473 155.795,113.211 159.600 C 113.646 161.839,114.718 167.871,115.202 170.800 C 115.403 172.010,115.667 174.170,115.790 175.600 C 116.041 178.524,116.375 179.535,118.722 184.480 C 119.631 186.394,120.493 188.433,120.639 189.011 C 121.026 190.556,122.738 194.011,123.840 195.473 C 124.368 196.174,124.800 196.849,124.800 196.973 C 124.800 198.095,129.953 200.996,131.226 200.592 C 133.255 199.948,134.512 203.152,137.194 215.800 C 137.474 217.120,137.950 219.216,138.252 220.458 C 138.553 221.699,138.800 223.148,138.800 223.678 C 138.800 224.207,138.943 224.811,139.118 225.020 C 139.293 225.229,139.671 226.120,139.958 227.000 C 140.484 228.613,142.469 233.118,143.308 234.600 C 143.692 235.281,146.964 241.550,148.630 244.800 C 149.387 246.277,149.911 279.944,149.226 283.121 C 148.174 288.002,147.826 289.087,146.510 291.600 C 144.822 294.821,137.172 302.000,135.427 302.000 C 135.363 302.000,133.981 302.733,132.355 303.629 C 130.730 304.526,127.690 305.985,125.600 306.872 C 123.510 307.759,120.850 308.916,119.688 309.443 C 118.527 309.969,117.504 310.400,117.416 310.400 C 117.207 310.400,112.005 312.723,111.105 313.218 C 110.723 313.428,110.201 313.600,109.944 313.600 C 109.687 313.600,108.290 314.164,106.839 314.852 C 105.387 315.541,102.220 316.958,99.800 318.001 C 97.380 319.043,93.992 320.550,92.271 321.348 C 90.550 322.147,89.069 322.800,88.981 322.800 C 88.892 322.800,86.921 323.700,84.600 324.800 C 82.279 325.900,80.232 326.800,80.050 326.800 C 79.868 326.800,78.873 327.250,77.838 327.800 C 76.804 328.350,75.697 328.800,75.379 328.800 C 75.060 328.800,74.799 328.935,74.797 329.100 C 74.796 329.265,73.228 330.120,71.313 331.000 C 64.360 334.195,46.990 343.083,44.108 344.921 C 43.177 345.514,42.305 346.000,42.170 346.000 C 42.034 346.000,41.446 346.335,40.862 346.743 C 40.278 347.152,38.720 348.077,37.400 348.798 C 36.080 349.519,32.681 351.659,29.846 353.554 C 27.011 355.449,24.401 357.180,24.046 357.400 C 23.691 357.620,23.256 358.025,23.080 358.300 C 22.904 358.575,22.514 358.800,22.213 358.800 C 21.913 358.800,21.607 358.935,21.533 359.100 C 21.460 359.265,20.106 360.446,18.524 361.725 C 15.735 363.981,11.431 368.089,9.800 370.053 C 8.355 371.793,6.800 373.942,6.800 374.200 C 6.800 374.339,6.374 375.026,5.853 375.727 C 5.333 376.427,4.588 377.855,4.199 378.900 C 3.810 379.945,3.356 380.800,3.191 380.800 C 3.026 380.800,2.793 381.295,2.674 381.900 C 2.554 382.505,2.150 384.170,1.776 385.600 C 1.402 387.030,1.015 389.550,0.918 391.200 C 0.820 392.850,0.573 394.371,0.370 394.580 C 0.166 394.789,-0.000 396.094,-0.000 397.480 L 0.000 400.000 200.033 400.000 L 400.066 400.000 399.847 397.300 C 399.072 387.730,398.160 383.607,395.689 378.502 C 394.918 376.908,394.042 375.401,393.743 375.153 C 393.444 374.905,393.200 374.536,393.200 374.334 C 393.200 373.007,386.900 366.148,382.054 362.200 C 380.434 360.880,378.872 359.575,378.583 359.300 C 378.294 359.025,377.873 358.800,377.648 358.800 C 377.424 358.800,377.096 358.565,376.920 358.278 C 376.744 357.992,375.700 357.150,374.600 356.409 C 373.500 355.667,371.520 354.329,370.200 353.435 C 368.880 352.541,367.440 351.605,367.000 351.355 C 366.560 351.106,364.580 349.950,362.600 348.786 C 360.620 347.623,358.550 346.420,358.000 346.113 C 357.450 345.806,356.460 345.216,355.800 344.801 C 352.774 342.899,326.469 329.623,325.700 329.609 C 325.425 329.604,325.200 329.420,325.200 329.200 C 325.200 328.980,324.940 328.800,324.621 328.800 C 324.303 328.800,323.196 328.350,322.162 327.800 C 321.127 327.250,320.132 326.800,319.950 326.800 C 319.768 326.800,317.721 325.900,315.400 324.800 C 313.079 323.700,311.106 322.800,311.014 322.800 C 310.922 322.800,309.262 322.063,307.324 321.162 C 305.386 320.261,302.000 318.752,299.800 317.810 C 297.600 316.868,294.613 315.535,293.161 314.849 C 291.710 314.162,290.330 313.600,290.094 313.600 C 289.858 313.600,289.155 313.341,288.532 313.025 C 287.013 312.254,282.823 310.400,282.599 310.400 C 282.501 310.400,281.291 309.883,279.910 309.251 C 278.530 308.618,275.870 307.464,274.000 306.685 C 272.130 305.906,269.270 304.533,267.645 303.634 C 266.019 302.735,264.637 302.000,264.573 302.000 C 264.027 302.000,259.043 298.259,257.190 296.459 C 253.878 293.241,252.281 290.127,251.109 284.600 C 250.286 280.717,250.272 252.403,251.093 250.944 C 252.666 248.151,254.269 245.442,255.514 243.475 C 258.565 238.656,259.989 234.717,262.193 225.000 C 262.542 223.460,262.982 221.570,263.170 220.800 C 263.525 219.347,264.624 214.581,265.245 211.800 C 265.442 210.920,265.858 208.940,266.170 207.400 C 266.481 205.860,267.070 203.250,267.478 201.600 L 268.219 198.601 270.410 198.325 C 273.248 197.967,275.007 197.201,277.076 195.421 C 278.776 193.958,280.218 191.317,282.766 185.000 C 282.944 184.560,283.390 183.506,283.759 182.657 C 284.177 181.692,284.578 179.068,284.827 175.657 C 285.078 172.219,285.614 168.720,286.276 166.200 C 288.190 158.911,287.619 154.908,284.138 151.193 C 282.841 149.809,282.825 149.750,283.215 147.593 C 284.684 139.449,284.309 120.982,282.422 108.600 C 280.312 94.753,278.522 86.652,276.563 82.086 C 276.254 81.364,276.000 80.589,276.000 80.364 C 276.000 79.865,271.627 71.080,271.239 70.800 C 271.086 70.690,270.488 69.790,269.909 68.800 C 269.330 67.810,268.349 66.433,267.728 65.740 C 267.108 65.047,266.203 63.967,265.718 63.340 C 264.089 61.236,260.213 57.348,257.796 55.395 C 256.478 54.329,255.310 53.350,255.200 53.218 C 254.809 52.748,248.980 48.589,247.789 47.930 C 243.390 45.496,235.749 43.611,227.000 42.800 C 221.280 42.271,210.421 40.223,207.800 39.180 C 205.256 38.168,187.100 37.225,182.200 37.851 " stroke="none" fill="#ccd0d3" fill-rule="evenodd"></path><path id="path1" d="M0.060 194.900 C 0.093 302.095,0.197 389.260,0.291 388.600 C 0.439 387.570,0.761 386.346,2.296 381.000 C 5.244 370.728,19.809 357.551,42.000 345.081 C 48.502 341.428,67.211 331.915,73.200 329.218 C 74.850 328.475,77.820 327.076,79.800 326.110 C 81.780 325.143,85.470 323.444,88.000 322.332 C 90.530 321.221,93.950 319.687,95.600 318.922 C 97.250 318.158,99.680 317.079,101.000 316.525 C 102.320 315.971,104.210 315.166,105.200 314.737 C 106.190 314.308,107.360 313.801,107.800 313.610 C 108.240 313.420,109.815 312.710,111.301 312.032 C 112.787 311.354,114.087 310.800,114.191 310.800 C 114.557 310.800,125.848 305.883,129.566 304.104 C 140.766 298.746,145.713 293.840,147.904 285.916 C 148.529 283.657,148.587 281.471,148.475 264.513 L 148.350 245.626 147.313 243.713 C 142.462 234.768,138.862 227.138,138.390 224.800 C 138.234 224.030,137.648 221.330,137.087 218.800 C 136.527 216.270,135.979 213.750,135.869 213.200 C 134.302 205.342,132.886 201.600,131.479 201.600 C 127.495 201.600,122.697 196.935,120.623 191.045 C 120.150 189.700,119.006 187.007,118.081 185.061 C 117.157 183.114,116.400 181.305,116.400 181.041 C 116.400 180.776,116.207 180.367,115.970 180.130 C 115.734 179.894,115.388 178.193,115.201 176.350 C 114.847 172.865,113.940 166.990,113.170 163.200 C 111.629 155.615,112.711 150.624,116.705 146.901 L 118.099 145.602 117.843 140.701 C 116.947 123.487,117.324 108.862,118.795 103.800 C 118.987 103.140,119.264 101.790,119.411 100.800 C 120.833 91.229,128.885 71.393,133.285 66.625 C 133.678 66.198,134.000 65.719,134.000 65.561 C 134.000 64.161,142.777 55.494,147.800 51.934 C 152.607 48.527,166.190 41.200,167.698 41.200 C 167.996 41.200,168.411 41.031,168.620 40.824 C 169.319 40.132,176.164 38.069,179.200 37.635 C 191.538 35.870,198.126 36.311,214.600 40.002 C 217.460 40.643,222.410 41.456,225.600 41.808 C 232.170 42.534,236.875 43.314,239.800 44.162 C 240.900 44.481,242.520 44.952,243.400 45.210 C 246.961 46.251,250.136 48.212,256.423 53.251 C 262.120 57.817,269.859 66.076,270.762 68.555 C 270.851 68.800,271.346 69.557,271.862 70.238 C 272.378 70.919,272.800 71.597,272.800 71.746 C 272.800 71.894,273.214 72.687,273.720 73.508 C 275.311 76.090,278.055 82.839,278.839 86.100 C 279.038 86.925,279.368 88.275,279.574 89.100 C 280.559 93.057,280.747 93.899,280.936 95.200 C 281.048 95.970,281.515 98.760,281.974 101.400 C 283.350 109.319,283.592 111.111,284.209 117.975 C 284.984 126.602,284.980 140.177,284.199 145.357 L 283.603 149.313 285.174 151.019 C 288.220 154.323,289.340 162.257,287.204 165.400 C 286.602 166.286,285.915 170.730,285.610 175.722 C 285.275 181.191,284.921 182.604,282.732 187.200 C 282.051 188.630,281.360 190.160,281.197 190.600 C 280.318 192.967,279.950 193.630,278.762 194.982 C 277.192 196.770,273.795 198.791,272.350 198.796 C 268.817 198.809,268.917 198.613,266.212 210.800 C 264.548 218.296,263.730 221.879,263.199 224.000 C 263.006 224.770,262.358 227.380,261.760 229.800 C 260.585 234.551,258.835 239.188,256.780 243.000 C 255.028 246.248,252.330 250.535,251.818 250.885 C 250.990 251.451,251.273 282.951,252.134 286.000 C 254.999 296.147,260.503 300.251,284.891 310.425 C 287.470 311.501,289.900 312.545,290.291 312.744 C 290.681 312.943,291.450 313.294,292.000 313.523 C 292.550 313.752,297.590 315.959,303.200 318.427 C 313.932 323.148,316.062 324.121,329.200 330.298 C 335.485 333.252,350.406 340.834,354.600 343.204 C 355.480 343.701,356.920 344.480,357.800 344.934 C 358.680 345.389,360.617 346.534,362.104 347.480 C 363.591 348.426,364.906 349.200,365.025 349.200 C 365.144 349.200,367.797 350.884,370.921 352.943 C 389.259 365.028,397.543 375.339,399.729 388.800 C 399.818 389.350,399.916 302.095,399.946 194.900 L 400.000 0.000 200.000 0.000 L 0.000 0.000 0.060 194.900 " stroke="none" fill="#fcfcfc" fill-rule="evenodd"></path><path id="path2" d="M189.100 37.497 C 190.695 37.573,193.305 37.573,194.900 37.497 C 196.495 37.421,195.190 37.359,192.000 37.359 C 188.810 37.359,187.505 37.421,189.100 37.497 M181.300 37.876 C 181.685 37.976,182.315 37.976,182.700 37.876 C 183.085 37.775,182.770 37.693,182.000 37.693 C 181.230 37.693,180.915 37.775,181.300 37.876 M201.905 38.283 C 202.402 38.379,203.122 38.375,203.505 38.275 C 203.887 38.175,203.480 38.096,202.600 38.101 C 201.720 38.105,201.407 38.187,201.905 38.283 M171.800 39.885 C 171.360 39.991,170.820 40.260,170.600 40.484 C 170.330 40.758,170.525 40.795,171.200 40.597 C 173.271 39.989,173.755 39.415,171.800 39.885 M212.600 40.400 C 213.040 40.589,213.760 40.738,214.200 40.732 C 214.843 40.723,214.804 40.657,214.000 40.400 C 212.632 39.962,211.581 39.962,212.600 40.400 M222.305 42.283 C 222.802 42.379,223.522 42.375,223.905 42.275 C 224.287 42.175,223.880 42.096,223.000 42.101 C 222.120 42.105,221.807 42.187,222.305 42.283 M225.905 42.683 C 226.402 42.779,227.122 42.775,227.505 42.675 C 227.887 42.575,227.480 42.496,226.600 42.501 C 225.720 42.505,225.407 42.587,225.905 42.683 M161.500 44.425 C 159.795 45.297,158.400 46.100,158.400 46.209 C 158.400 46.319,159.840 45.685,161.600 44.800 C 163.360 43.915,164.800 43.103,164.800 42.996 C 164.800 42.726,164.950 42.661,161.500 44.425 M231.221 43.221 C 231.755 43.560,234.742 43.781,234.367 43.455 C 234.275 43.375,233.399 43.208,232.421 43.082 C 231.270 42.935,230.846 42.984,231.221 43.221 M236.600 44.211 C 237.480 44.501,238.560 44.736,239.000 44.733 C 239.440 44.731,238.900 44.478,237.800 44.172 C 235.297 43.476,234.452 43.503,236.600 44.211 M243.200 45.933 C 243.530 46.136,244.250 46.424,244.800 46.571 C 245.495 46.757,245.617 46.725,245.200 46.467 C 244.870 46.264,244.150 45.976,243.600 45.829 C 242.905 45.643,242.783 45.675,243.200 45.933 M249.200 48.543 C 249.200 48.643,250.144 49.417,251.298 50.262 C 254.362 52.509,255.159 53.000,253.800 51.807 C 252.327 50.513,249.200 48.295,249.200 48.543 M149.200 51.660 C 148.430 52.335,148.162 52.705,148.604 52.481 C 149.335 52.111,151.147 50.378,150.762 50.416 C 150.673 50.425,149.970 50.985,149.200 51.660 M145.100 54.606 C 143.835 55.599,142.800 56.511,142.800 56.632 C 142.800 56.754,143.880 56.005,145.200 54.968 C 147.322 53.301,147.854 52.799,147.500 52.800 C 147.445 52.800,146.365 53.613,145.100 54.606 M256.686 54.480 C 259.099 56.519,259.587 56.748,257.614 54.915 C 256.616 53.989,255.659 53.224,255.486 53.215 C 255.313 53.207,255.853 53.776,256.686 54.480 M263.239 60.264 C 263.403 60.704,265.518 63.239,267.952 65.914 C 269.048 67.119,269.150 67.173,268.495 66.199 C 267.513 64.740,263.012 59.658,263.239 60.264 M135.944 63.900 C 134.793 65.289,134.306 66.000,134.504 66.000 C 134.614 66.000,135.186 65.370,135.773 64.600 C 136.863 63.171,136.995 62.632,135.944 63.900 M132.870 68.100 C 131.357 70.301,127.944 76.477,128.134 76.667 C 128.215 76.748,128.876 75.686,129.602 74.307 C 130.329 72.928,131.702 70.585,132.654 69.100 C 134.563 66.121,134.716 65.415,132.870 68.100 M270.096 69.100 C 270.573 69.925,271.083 70.690,271.227 70.800 C 271.372 70.910,271.867 71.720,272.327 72.600 C 272.788 73.480,273.173 74.056,273.182 73.880 C 273.219 73.210,269.827 67.600,269.385 67.600 C 269.298 67.600,269.618 68.275,270.096 69.100 M274.036 75.800 C 274.036 76.020,274.470 77.010,275.000 78.000 C 275.530 78.990,275.964 79.620,275.964 79.400 C 275.964 79.180,275.530 78.190,275.000 77.200 C 274.470 76.210,274.036 75.580,274.036 75.800 M126.865 79.017 C 126.195 80.488,126.323 80.802,127.047 79.465 C 127.386 78.840,127.588 78.254,127.496 78.163 C 127.405 78.071,127.121 78.456,126.865 79.017 M276.030 80.400 C 276.028 80.976,277.157 83.266,277.186 82.746 C 277.194 82.606,276.937 81.886,276.616 81.146 C 276.294 80.406,276.031 80.070,276.030 80.400 M126.000 80.884 C 126.000 81.004,125.728 81.754,125.395 82.551 C 125.062 83.348,124.879 84.000,124.989 84.000 C 125.306 84.000,126.433 81.100,126.205 80.872 C 126.092 80.759,126.000 80.765,126.000 80.884 M277.216 83.854 C 277.207 84.104,277.463 84.914,277.784 85.654 C 278.106 86.394,278.376 86.796,278.384 86.546 C 278.393 86.296,278.137 85.486,277.816 84.746 C 277.494 84.006,277.224 83.604,277.216 83.854 M124.044 86.044 C 123.798 86.751,123.666 87.400,123.752 87.485 C 123.838 87.571,124.109 87.062,124.356 86.356 C 124.602 85.649,124.734 85.000,124.648 84.915 C 124.562 84.829,124.291 85.338,124.044 86.044 M122.229 91.429 C 122.081 92.015,122.038 92.572,122.132 92.666 C 122.227 92.760,122.424 92.358,122.571 91.771 C 122.719 91.185,122.762 90.628,122.668 90.534 C 122.573 90.440,122.376 90.842,122.229 91.429 M279.287 91.200 C 279.283 91.750,279.424 92.650,279.600 93.200 C 280.031 94.544,280.031 93.092,279.600 91.400 C 279.326 90.322,279.294 90.302,279.287 91.200 M121.286 94.661 C 121.039 95.465,120.996 95.960,121.190 95.761 C 121.582 95.361,122.189 93.200,121.910 93.200 C 121.814 93.200,121.532 93.858,121.286 94.661 M280.406 97.033 C 280.409 97.455,280.595 98.070,280.818 98.400 C 281.115 98.838,281.152 98.676,280.956 97.800 C 280.627 96.329,280.398 96.010,280.406 97.033 M281.693 103.600 C 281.693 104.370,281.775 104.685,281.876 104.300 C 281.976 103.915,281.976 103.285,281.876 102.900 C 281.775 102.515,281.693 102.830,281.693 103.600 M282.493 109.200 C 282.493 109.970,282.575 110.285,282.676 109.900 C 282.776 109.515,282.776 108.885,282.676 108.500 C 282.575 108.115,282.493 108.430,282.493 109.200 M118.124 113.000 C 118.126 114.320,118.201 114.812,118.290 114.093 C 118.379 113.374,118.377 112.294,118.286 111.693 C 118.195 111.092,118.122 111.680,118.124 113.000 M283.293 116.000 C 283.293 116.770,283.375 117.085,283.476 116.700 C 283.576 116.315,283.576 115.685,283.476 115.300 C 283.375 114.915,283.293 115.230,283.293 116.000 M283.709 119.200 C 283.709 120.190,283.787 120.595,283.882 120.100 C 283.978 119.605,283.978 118.795,283.882 118.300 C 283.787 117.805,283.709 118.210,283.709 119.200 M117.755 123.400 C 117.756 126.260,117.820 127.378,117.897 125.883 C 117.974 124.389,117.974 122.049,117.896 120.683 C 117.818 119.318,117.755 120.540,117.755 123.400 M284.150 129.000 C 284.151 131.420,284.216 132.358,284.296 131.085 C 284.376 129.812,284.375 127.832,284.294 126.685 C 284.214 125.538,284.149 126.580,284.150 129.000 M118.140 134.400 C 118.140 136.270,118.209 137.035,118.293 136.100 C 118.377 135.165,118.377 133.635,118.293 132.700 C 118.209 131.765,118.140 132.530,118.140 134.400 M284.093 139.600 C 284.093 140.370,284.175 140.685,284.276 140.300 C 284.376 139.915,284.376 139.285,284.276 138.900 C 284.175 138.515,284.093 138.830,284.093 139.600 M118.540 142.000 C 118.540 143.870,118.609 144.635,118.693 143.700 C 118.777 142.765,118.777 141.235,118.693 140.300 C 118.609 139.365,118.540 140.130,118.540 142.000 M283.422 145.822 C 283.272 146.625,283.228 147.362,283.326 147.460 C 283.424 147.557,283.627 146.981,283.778 146.178 C 283.928 145.375,283.972 144.638,283.874 144.540 C 283.776 144.443,283.573 145.019,283.422 145.822 M116.800 147.554 L 115.400 148.919 116.688 148.041 C 117.924 147.198,118.636 146.434,118.340 146.268 C 118.263 146.225,117.570 146.804,116.800 147.554 M282.825 149.225 C 282.811 149.569,283.358 150.379,284.040 151.025 C 285.247 152.168,285.538 152.681,286.638 155.600 C 286.928 156.370,287.173 156.708,287.182 156.351 C 287.213 155.238,285.692 152.225,284.577 151.189 C 283.992 150.645,283.364 149.840,283.182 149.400 C 282.947 148.832,282.843 148.781,282.825 149.225 M113.076 154.410 C 112.930 154.955,112.827 155.850,112.846 156.400 C 112.871 157.118,112.984 156.957,113.249 155.827 C 113.655 154.095,113.500 152.825,113.076 154.410 M112.880 159.200 C 112.880 159.750,113.024 160.650,113.200 161.200 L 113.520 162.200 113.520 161.200 C 113.520 160.650,113.376 159.750,113.200 159.200 L 112.880 158.200 112.880 159.200 M287.701 160.200 C 287.705 161.080,287.787 161.393,287.883 160.895 C 287.979 160.398,287.975 159.678,287.875 159.295 C 287.775 158.913,287.696 159.320,287.701 160.200 M287.029 163.029 C 286.881 163.615,286.838 164.172,286.932 164.266 C 287.027 164.360,287.224 163.958,287.371 163.371 C 287.519 162.785,287.562 162.228,287.468 162.134 C 287.373 162.040,287.176 162.442,287.029 163.029 M114.068 165.800 C 114.062 166.240,114.211 166.960,114.400 167.400 C 114.838 168.419,114.838 167.368,114.400 166.000 C 114.143 165.196,114.077 165.157,114.068 165.800 M284.901 174.600 C 284.905 175.480,284.987 175.793,285.083 175.295 C 285.179 174.798,285.175 174.078,285.075 173.695 C 284.975 173.313,284.896 173.720,284.901 174.600 M283.665 182.617 C 283.409 183.178,283.207 183.854,283.216 184.119 C 283.224 184.383,283.497 183.988,283.822 183.239 C 284.505 181.665,284.361 181.090,283.665 182.617 M118.028 183.400 C 118.028 183.620,118.286 184.250,118.600 184.800 C 118.914 185.350,119.172 185.620,119.172 185.400 C 119.172 185.180,118.914 184.550,118.600 184.000 C 118.286 183.450,118.028 183.180,118.028 183.400 M119.228 186.200 C 119.228 186.420,119.486 187.050,119.800 187.600 C 120.114 188.150,120.372 188.420,120.372 188.200 C 120.372 187.980,120.114 187.350,119.800 186.800 C 119.486 186.250,119.228 185.980,119.228 186.200 M280.159 191.076 C 279.702 192.288,278.613 193.810,277.217 195.190 C 275.931 196.461,275.533 197.005,276.268 196.486 C 278.497 194.913,281.759 190.026,281.052 189.319 C 280.960 189.227,280.558 190.017,280.159 191.076 M121.379 191.800 C 121.743 192.680,122.223 193.580,122.444 193.800 C 122.665 194.020,122.504 193.433,122.085 192.495 C 121.099 190.287,120.513 189.710,121.379 191.800 M122.802 194.542 C 122.801 194.730,123.250 195.419,123.800 196.073 C 124.350 196.727,124.794 197.113,124.786 196.931 C 124.766 196.477,122.804 194.115,122.802 194.542 M268.138 199.017 C 268.008 199.357,268.013 199.747,268.151 199.884 C 268.288 200.021,268.400 199.847,268.400 199.496 C 268.400 199.145,268.715 198.776,269.100 198.676 C 269.756 198.504,269.755 198.490,269.087 198.446 C 268.696 198.421,268.268 198.678,268.138 199.017 M132.100 201.029 C 132.705 201.357,133.200 201.830,133.200 202.079 C 133.200 202.329,133.319 202.414,133.464 202.269 C 133.850 201.883,132.386 200.397,131.638 200.416 C 131.246 200.426,131.425 200.662,132.100 201.029 M266.649 204.615 C 266.512 204.973,266.418 205.656,266.441 206.133 C 266.467 206.681,266.603 206.486,266.810 205.603 C 267.160 204.116,267.065 203.533,266.649 204.615 M134.868 206.800 C 134.888 207.839,135.518 209.546,135.532 208.600 C 135.538 208.160,135.389 207.440,135.200 207.000 C 134.989 206.510,134.861 206.432,134.868 206.800 M264.600 214.400 C 264.448 215.091,264.407 215.741,264.509 215.842 C 264.611 215.944,264.809 215.453,264.950 214.750 C 265.091 214.047,265.131 213.398,265.041 213.308 C 264.950 213.217,264.752 213.709,264.600 214.400 M263.429 219.429 C 263.281 220.015,263.238 220.572,263.332 220.666 C 263.427 220.760,263.624 220.358,263.771 219.771 C 263.919 219.185,263.962 218.628,263.868 218.534 C 263.773 218.440,263.576 218.842,263.429 219.429 M262.649 222.615 C 262.512 222.973,262.415 223.566,262.434 223.933 C 262.453 224.300,262.627 224.069,262.821 223.420 C 263.198 222.158,263.065 221.533,262.649 222.615 M255.299 243.700 C 254.726 244.418,253.434 247.078,253.890 246.600 C 254.448 246.015,256.097 243.200,255.882 243.200 C 255.781 243.200,255.518 243.425,255.299 243.700 M148.969 264.473 C 148.986 274.963,149.122 283.243,149.272 282.873 C 149.615 282.025,149.585 266.231,149.218 254.400 C 148.998 247.309,148.945 249.445,148.969 264.473 M251.309 250.282 C 250.542 251.451,249.980 280.391,250.686 282.307 C 250.859 282.774,250.947 276.217,250.882 267.735 C 250.769 252.896,250.795 252.255,251.576 250.757 C 252.509 248.966,252.354 248.689,251.309 250.282 M251.206 285.433 C 251.209 285.855,251.395 286.470,251.618 286.800 C 251.915 287.238,251.952 287.076,251.756 286.200 C 251.427 284.729,251.198 284.410,251.206 285.433 M148.229 286.229 C 148.081 286.815,148.038 287.372,148.132 287.466 C 148.227 287.560,148.424 287.158,148.571 286.571 C 148.719 285.985,148.762 285.428,148.668 285.334 C 148.573 285.240,148.376 285.642,148.229 286.229 M252.032 288.424 C 252.014 288.766,252.280 289.396,252.622 289.824 C 253.234 290.588,253.238 290.587,252.876 289.800 C 252.674 289.360,252.408 288.730,252.286 288.400 C 252.093 287.882,252.059 287.885,252.032 288.424 M258.276 297.424 C 260.198 299.227,262.800 301.105,262.800 300.690 C 262.800 300.605,261.945 299.923,260.900 299.174 C 259.855 298.424,258.351 297.269,257.559 296.606 C 256.766 295.943,257.089 296.311,258.276 297.424 M141.364 297.341 C 140.244 298.276,138.804 299.449,138.164 299.949 L 137.000 300.857 138.200 300.198 C 139.343 299.570,144.020 295.617,143.600 295.633 C 143.490 295.638,142.484 296.406,141.364 297.341 M128.000 305.426 C 126.570 306.153,125.513 306.759,125.650 306.773 C 125.975 306.808,130.019 304.964,130.800 304.426 C 131.965 303.623,130.569 304.122,128.000 305.426 M269.200 304.389 C 270.053 305.029,274.094 306.840,274.272 306.662 C 274.353 306.580,273.291 306.000,271.910 305.372 C 268.767 303.943,268.455 303.830,269.200 304.389 M123.600 307.400 C 123.050 307.714,122.780 307.972,123.000 307.972 C 123.220 307.972,123.850 307.714,124.400 307.400 C 124.950 307.086,125.220 306.828,125.000 306.828 C 124.780 306.828,124.150 307.086,123.600 307.400 M277.600 308.200 C 278.150 308.514,278.780 308.772,279.000 308.772 C 279.220 308.772,278.950 308.514,278.400 308.200 C 277.850 307.886,277.220 307.628,277.000 307.628 C 276.780 307.628,277.050 307.886,277.600 308.200 M115.200 311.000 C 114.650 311.314,114.380 311.572,114.600 311.572 C 114.820 311.572,115.450 311.314,116.000 311.000 C 116.550 310.686,116.820 310.428,116.600 310.428 C 116.380 310.428,115.750 310.686,115.200 311.000 M284.975 311.421 C 286.061 311.959,287.141 312.385,287.375 312.367 C 287.874 312.328,283.990 310.451,283.400 310.446 C 283.180 310.444,283.889 310.883,284.975 311.421 M112.600 312.214 C 111.595 312.698,111.563 312.753,112.400 312.551 C 112.950 312.419,113.571 312.150,113.780 311.955 C 114.298 311.471,114.014 311.533,112.600 312.214 M103.200 316.200 C 102.650 316.514,102.380 316.772,102.600 316.772 C 102.820 316.772,103.450 316.514,104.000 316.200 C 104.550 315.886,104.820 315.628,104.600 315.628 C 104.380 315.628,103.750 315.886,103.200 316.200 M296.000 316.200 C 296.550 316.514,297.180 316.772,297.400 316.772 C 297.620 316.772,297.350 316.514,296.800 316.200 C 296.250 315.886,295.620 315.628,295.400 315.628 C 295.180 315.628,295.450 315.886,296.000 316.200 M100.400 317.400 C 99.850 317.714,99.580 317.972,99.800 317.972 C 100.020 317.972,100.650 317.714,101.200 317.400 C 101.750 317.086,102.020 316.828,101.800 316.828 C 101.580 316.828,100.950 317.086,100.400 317.400 M97.600 318.600 C 97.050 318.914,96.780 319.172,97.000 319.172 C 97.220 319.172,97.850 318.914,98.400 318.600 C 98.950 318.286,99.220 318.028,99.000 318.028 C 98.780 318.028,98.150 318.286,97.600 318.600 M301.600 318.600 C 302.150 318.914,302.780 319.172,303.000 319.172 C 303.220 319.172,302.950 318.914,302.400 318.600 C 301.850 318.286,301.220 318.028,301.000 318.028 C 300.780 318.028,301.050 318.286,301.600 318.600 M304.800 320.000 C 305.570 320.422,306.380 320.766,306.600 320.766 C 306.820 320.766,306.370 320.422,305.600 320.000 C 304.830 319.578,304.020 319.234,303.800 319.234 C 303.580 319.234,304.030 319.578,304.800 320.000 M94.000 320.200 C 93.450 320.514,93.180 320.772,93.400 320.772 C 93.620 320.772,94.250 320.514,94.800 320.200 C 95.350 319.886,95.620 319.628,95.400 319.628 C 95.180 319.628,94.550 319.886,94.000 320.200 M307.200 320.976 C 307.200 321.180,310.748 322.807,311.151 322.788 C 311.514 322.770,310.205 322.045,308.596 321.373 C 307.828 321.052,307.200 320.873,307.200 320.976 M89.600 322.200 C 89.050 322.514,88.780 322.772,89.000 322.772 C 89.220 322.772,89.850 322.514,90.400 322.200 C 90.950 321.886,91.220 321.628,91.000 321.628 C 90.780 321.628,90.150 321.886,89.600 322.200 M86.800 323.400 C 86.250 323.714,85.980 323.972,86.200 323.972 C 86.420 323.972,87.050 323.714,87.600 323.400 C 88.150 323.086,88.420 322.828,88.200 322.828 C 87.980 322.828,87.350 323.086,86.800 323.400 M312.400 323.400 C 312.950 323.714,313.580 323.972,313.800 323.972 C 314.020 323.972,313.750 323.714,313.200 323.400 C 312.650 323.086,312.020 322.828,311.800 322.828 C 311.580 322.828,311.850 323.086,312.400 323.400 M80.800 326.200 C 80.250 326.514,79.980 326.772,80.200 326.772 C 80.420 326.772,81.050 326.514,81.600 326.200 C 82.150 325.886,82.420 325.628,82.200 325.628 C 81.980 325.628,81.350 325.886,80.800 326.200 M318.400 326.200 C 318.950 326.514,319.580 326.772,319.800 326.772 C 320.020 326.772,319.750 326.514,319.200 326.200 C 318.650 325.886,318.020 325.628,317.800 325.628 C 317.580 325.628,317.850 325.886,318.400 326.200 M68.800 331.800 C 67.810 332.330,67.112 332.772,67.249 332.782 C 67.636 332.810,71.200 331.185,71.200 330.981 C 71.200 330.634,70.588 330.843,68.800 331.800 M329.200 330.997 C 329.200 331.268,332.449 332.884,332.630 332.703 C 332.714 332.619,331.976 332.159,330.991 331.681 C 330.006 331.202,329.200 330.894,329.200 330.997 M339.600 336.196 C 339.600 336.470,342.049 337.684,342.232 337.501 C 342.319 337.414,341.762 337.044,340.995 336.678 C 340.228 336.312,339.600 336.095,339.600 336.196 M53.100 339.627 C 52.275 340.063,51.600 340.508,51.600 340.618 C 51.600 340.727,52.320 340.449,53.200 340.000 C 54.080 339.551,54.800 339.097,54.800 338.992 C 54.800 338.730,54.797 338.731,53.100 339.627 M345.200 338.984 C 345.200 339.094,345.920 339.551,346.800 340.000 C 347.680 340.449,348.400 340.726,348.400 340.616 C 348.400 340.506,347.680 340.049,346.800 339.600 C 345.920 339.151,345.200 338.874,345.200 338.984 M43.600 344.818 C 42.610 345.460,41.939 345.988,42.108 345.992 C 42.503 346.002,45.600 344.053,45.600 343.795 C 45.600 343.522,45.602 343.521,43.600 344.818 M39.279 347.254 C 38.112 347.934,37.237 348.571,37.335 348.668 C 37.520 348.853,41.600 346.458,41.600 346.166 C 41.600 345.909,41.534 345.940,39.279 347.254 M359.000 346.595 C 359.905 347.350,363.218 349.101,362.600 348.497 C 362.380 348.282,361.300 347.616,360.200 347.017 C 359.100 346.417,358.560 346.228,359.000 346.595 M34.287 350.231 C 33.029 351.018,32.000 351.758,32.000 351.877 C 32.000 351.995,32.479 351.778,33.065 351.394 C 33.651 351.010,34.731 350.341,35.465 349.908 C 36.616 349.229,37.090 348.800,36.687 348.800 C 36.626 348.800,35.546 349.444,34.287 350.231 M366.000 350.764 C 366.550 351.214,367.180 351.583,367.400 351.585 C 367.828 351.588,367.105 351.034,365.800 350.360 C 365.269 350.085,365.336 350.221,366.000 350.764 M369.000 352.610 C 370.215 353.595,371.355 354.174,371.023 353.637 C 370.872 353.394,370.176 352.917,369.475 352.578 C 368.291 352.006,368.257 352.008,369.000 352.610 M26.160 355.600 C 24.652 356.700,23.548 357.600,23.707 357.600 C 23.867 357.600,25.123 356.773,26.499 355.762 C 29.284 353.716,29.424 353.600,29.119 353.600 C 29.000 353.600,27.669 354.500,26.160 355.600 M372.600 354.982 C 373.876 356.082,376.400 357.689,376.400 357.401 C 376.400 357.307,375.275 356.491,373.900 355.589 C 372.525 354.687,371.940 354.414,372.600 354.982 M378.413 359.100 C 378.419 359.265,378.914 359.746,379.513 360.168 L 380.600 360.936 379.630 359.868 C 378.611 358.746,378.392 358.607,378.413 359.100 M16.800 362.840 L 14.600 364.870 16.900 362.987 C 18.919 361.333,19.468 360.788,19.100 360.804 C 19.045 360.807,18.010 361.723,16.800 362.840 M381.400 361.561 C 381.840 362.071,382.920 363.046,383.800 363.727 C 384.969 364.632,385.185 364.716,384.600 364.039 C 384.160 363.529,383.080 362.554,382.200 361.873 C 381.031 360.968,380.815 360.884,381.400 361.561 M387.483 367.000 C 388.097 367.770,388.739 368.400,388.910 368.400 C 389.080 368.400,388.646 367.770,387.945 367.000 C 386.305 365.198,386.045 365.198,387.483 367.000 M9.600 369.800 C 9.083 370.350,8.827 370.794,9.030 370.787 C 9.372 370.776,11.021 368.800,10.688 368.800 C 10.606 368.800,10.117 369.250,9.600 369.800 M7.600 372.400 C 7.130 373.060,6.836 373.600,6.946 373.600 C 7.056 373.600,7.530 373.060,8.000 372.400 C 8.470 371.740,8.764 371.200,8.654 371.200 C 8.544 371.200,8.070 371.740,7.600 372.400 M392.150 372.473 C 392.728 373.284,393.206 374.094,393.214 374.273 C 393.222 374.453,393.681 375.140,394.233 375.800 L 395.238 377.000 394.755 375.900 C 394.489 375.295,394.120 374.800,393.936 374.800 C 393.751 374.800,393.595 374.575,393.589 374.300 C 393.583 374.025,393.021 373.170,392.340 372.400 L 391.101 371.000 392.150 372.473 M6.154 374.540 C 5.909 374.821,5.488 375.489,5.219 376.025 C 4.808 376.843,4.894 376.806,5.750 375.800 C 6.312 375.140,6.778 374.465,6.786 374.300 C 6.805 373.893,6.678 373.941,6.154 374.540 M3.722 379.007 C 3.268 379.993,3.028 380.800,3.188 380.800 C 3.492 380.800,4.882 377.549,4.669 377.336 C 4.602 377.269,4.176 378.021,3.722 379.007 M398.406 386.633 C 398.409 387.055,398.595 387.670,398.818 388.000 C 399.115 388.438,399.152 388.276,398.956 387.400 C 398.627 385.929,398.398 385.610,398.406 386.633 M399.246 392.400 C 399.227 393.170,399.387 394.070,399.600 394.400 C 400.087 395.154,400.087 393.522,399.600 392.000 C 399.307 391.084,399.277 391.117,399.246 392.400 M0.305 392.400 C -0.148 393.939,-0.084 395.044,0.429 394.531 C 0.665 394.295,0.800 393.494,0.729 392.751 C 0.608 391.479,0.583 391.459,0.305 392.400 " stroke="none" fill="#dcdcdd" fill-rule="evenodd"></path><path id="path3" d="M191.091 37.089 C 191.801 37.177,193.061 37.179,193.891 37.092 C 194.721 37.005,194.140 36.933,192.600 36.931 C 191.060 36.929,190.381 37.000,191.091 37.089 M182.700 37.489 C 183.415 37.578,184.585 37.578,185.300 37.489 C 186.015 37.401,185.430 37.328,184.000 37.328 C 182.570 37.328,181.985 37.401,182.700 37.489 M142.378 56.700 L 141.000 58.200 142.500 56.822 C 143.325 56.063,144.000 55.388,144.000 55.322 C 144.000 55.016,143.662 55.304,142.378 56.700 M263.600 60.525 C 263.600 60.594,264.185 61.179,264.900 61.825 L 266.200 63.000 265.025 61.700 C 263.930 60.488,263.600 60.216,263.600 60.525 M134.000 66.000 C 133.530 66.660,133.236 67.200,133.346 67.200 C 133.456 67.200,133.930 66.660,134.400 66.000 C 134.870 65.340,135.164 64.800,135.054 64.800 C 134.944 64.800,134.470 65.340,134.000 66.000 M117.709 116.800 C 117.709 117.790,117.787 118.195,117.882 117.700 C 117.978 117.205,117.978 116.395,117.882 115.900 C 117.787 115.405,117.709 115.810,117.709 116.800 M284.093 123.600 C 284.093 124.370,284.175 124.685,284.276 124.300 C 284.376 123.915,284.376 123.285,284.276 122.900 C 284.175 122.515,284.093 122.830,284.093 123.600 M284.558 133.400 C 284.558 136.480,284.621 137.687,284.697 136.082 C 284.773 134.478,284.773 131.958,284.696 130.482 C 284.619 129.007,284.557 130.320,284.558 133.400 M117.728 130.800 C 117.728 132.230,117.801 132.815,117.889 132.100 C 117.978 131.385,117.978 130.215,117.889 129.500 C 117.801 128.785,117.728 129.370,117.728 130.800 M118.150 141.800 C 118.151 144.220,118.216 145.158,118.296 143.885 C 118.376 142.612,118.375 140.632,118.294 139.485 C 118.214 138.338,118.149 139.380,118.150 141.800 M284.400 151.000 C 285.146 151.770,285.847 152.400,285.957 152.400 C 286.067 152.400,285.546 151.770,284.800 151.000 C 284.054 150.230,283.353 149.600,283.243 149.600 C 283.133 149.600,283.654 150.230,284.400 151.000 M115.309 175.200 C 115.309 176.190,115.387 176.595,115.482 176.100 C 115.578 175.605,115.578 174.795,115.482 174.300 C 115.387 173.805,115.309 174.210,115.309 175.200 M284.920 178.000 C 284.920 179.210,284.995 179.705,285.087 179.100 C 285.178 178.495,285.178 177.505,285.087 176.900 C 284.995 176.295,284.920 176.790,284.920 178.000 M277.775 195.300 L 276.600 196.600 277.900 195.425 C 278.615 194.779,279.200 194.194,279.200 194.125 C 279.200 193.816,278.870 194.088,277.775 195.300 M124.400 197.325 C 124.400 197.394,124.985 197.979,125.700 198.625 L 127.000 199.800 125.825 198.500 C 124.730 197.288,124.400 197.016,124.400 197.325 M270.100 198.676 C 270.485 198.776,271.115 198.776,271.500 198.676 C 271.885 198.575,271.570 198.493,270.800 198.493 C 270.030 198.493,269.715 198.575,270.100 198.676 M148.970 270.000 C 148.970 274.730,149.028 276.665,149.098 274.300 C 149.169 271.935,149.169 268.065,149.098 265.700 C 149.028 263.335,148.970 265.270,148.970 270.000 M250.893 278.400 C 250.893 279.170,250.975 279.485,251.076 279.100 C 251.176 278.715,251.176 278.085,251.076 277.700 C 250.975 277.315,250.893 277.630,250.893 278.400 M142.981 295.700 L 141.400 297.400 143.100 295.819 C 144.681 294.348,144.984 294.000,144.681 294.000 C 144.616 294.000,143.851 294.765,142.981 295.700 M256.783 295.700 C 257.764 296.745,258.619 297.600,258.683 297.600 C 258.984 297.600,258.666 297.241,256.900 295.583 L 255.000 293.800 256.783 295.700 M6.555 373.412 C 6.190 373.969,5.964 374.498,6.053 374.587 C 6.142 374.676,6.518 374.220,6.889 373.574 C 7.714 372.136,7.469 372.017,6.555 373.412 M0.449 390.200 C 0.416 390.640,0.296 391.450,0.183 392.000 L -0.023 393.000 0.406 392.019 C 0.642 391.479,0.761 390.669,0.672 390.219 C 0.513 389.421,0.507 389.421,0.449 390.200 " stroke="none" fill="#e2e4e4" fill-rule="evenodd"></path><path id="path4" d="M192.300 36.682 C 192.795 36.778,193.605 36.778,194.100 36.682 C 194.595 36.587,194.190 36.509,193.200 36.509 C 192.210 36.509,191.805 36.587,192.300 36.682 M187.305 37.087 C 187.914 37.179,188.814 37.177,189.305 37.082 C 189.797 36.987,189.300 36.911,188.200 36.914 C 187.100 36.917,186.697 36.995,187.305 37.087 M195.900 37.082 C 196.395 37.178,197.205 37.178,197.700 37.082 C 198.195 36.987,197.790 36.909,196.800 36.909 C 195.810 36.909,195.405 36.987,195.900 37.082 M200.600 37.580 C 201.834 37.915,204.664 38.118,204.367 37.850 C 204.275 37.768,203.120 37.600,201.800 37.477 C 200.222 37.330,199.811 37.365,200.600 37.580 M175.200 38.400 C 174.396 38.657,174.357 38.723,175.000 38.732 C 175.440 38.738,176.160 38.589,176.600 38.400 C 177.619 37.962,176.568 37.962,175.200 38.400 M207.400 38.800 C 209.092 39.231,210.544 39.231,209.200 38.800 C 208.650 38.624,207.750 38.483,207.200 38.487 C 206.302 38.494,206.322 38.526,207.400 38.800 M214.800 40.400 C 215.350 40.576,216.160 40.720,216.600 40.720 C 217.233 40.720,217.192 40.654,216.400 40.400 C 215.850 40.224,215.040 40.080,214.600 40.080 C 213.967 40.080,214.008 40.146,214.800 40.400 M221.000 41.589 C 222.216 41.909,225.873 42.122,225.567 41.855 C 225.475 41.775,224.140 41.611,222.600 41.491 C 220.902 41.359,220.272 41.398,221.000 41.589 M227.105 42.283 C 227.602 42.379,228.322 42.375,228.705 42.275 C 229.087 42.175,228.680 42.096,227.800 42.101 C 226.920 42.105,226.607 42.187,227.105 42.283 M229.633 42.550 C 229.725 42.632,230.880 42.800,232.200 42.923 C 233.778 43.070,234.189 43.035,233.400 42.820 C 232.166 42.485,229.336 42.282,229.633 42.550 M161.100 44.027 C 160.275 44.463,159.600 44.908,159.600 45.018 C 159.600 45.196,162.759 43.719,163.167 43.351 C 163.627 42.934,162.425 43.328,161.100 44.027 M235.233 43.347 C 235.325 43.428,236.120 43.604,237.000 43.738 C 238.115 43.907,238.358 43.871,237.800 43.619 C 237.032 43.271,234.890 43.044,235.233 43.347 M244.022 45.780 C 244.804 46.068,246.199 46.689,247.122 47.160 C 248.045 47.631,248.800 47.915,248.800 47.791 C 248.800 47.447,243.882 45.197,243.200 45.229 C 242.870 45.244,243.240 45.492,244.022 45.780 M153.096 48.550 C 151.175 49.731,150.638 50.289,152.200 49.481 C 153.454 48.833,155.145 47.626,154.800 47.625 C 154.690 47.625,153.923 48.041,153.096 48.550 M251.843 50.059 C 258.349 54.916,263.746 59.921,267.516 64.591 C 268.222 65.466,268.800 66.061,268.800 65.912 C 268.800 64.103,251.332 48.000,249.369 48.000 C 249.213 48.000,250.326 48.926,251.843 50.059 M147.741 51.983 C 146.193 53.073,144.673 54.275,144.363 54.653 C 143.896 55.225,149.362 51.433,150.580 50.341 C 151.586 49.439,150.277 50.196,147.741 51.983 M141.000 57.511 C 137.830 60.537,133.525 65.600,134.123 65.600 C 134.216 65.600,134.951 64.745,135.754 63.700 C 136.558 62.655,138.694 60.315,140.501 58.500 C 144.259 54.724,144.576 54.097,141.000 57.511 M269.616 67.623 C 270.095 68.296,270.575 68.758,270.683 68.650 C 270.931 68.402,269.511 66.429,269.073 66.413 C 268.893 66.406,269.137 66.950,269.616 67.623 M131.854 68.503 C 129.941 71.830,128.684 74.179,128.929 73.968 C 129.478 73.494,133.157 67.200,132.884 67.203 C 132.728 67.204,132.264 67.789,131.854 68.503 M274.032 74.783 C 274.749 76.203,275.834 78.633,276.444 80.183 C 277.054 81.732,277.564 82.606,277.577 82.124 C 277.589 81.642,277.440 81.148,277.244 81.027 C 277.049 80.906,276.769 80.332,276.623 79.750 C 276.302 78.472,273.715 73.160,273.140 72.600 C 272.914 72.380,273.316 73.362,274.032 74.783 M126.465 78.617 C 125.795 80.088,125.923 80.402,126.647 79.065 C 126.986 78.440,127.188 77.854,127.096 77.763 C 127.005 77.671,126.721 78.056,126.465 78.617 M125.168 81.445 C 124.187 83.940,122.809 88.142,122.931 88.264 C 123.002 88.336,123.710 86.643,124.504 84.504 C 125.776 81.075,126.346 78.448,125.168 81.445 M277.645 83.400 C 277.681 84.294,278.740 86.582,278.755 85.800 C 278.764 85.360,278.514 84.550,278.200 84.000 C 277.886 83.450,277.636 83.180,277.645 83.400 M279.044 88.200 C 279.373 89.671,279.602 89.990,279.594 88.967 C 279.591 88.545,279.405 87.930,279.182 87.600 C 278.885 87.162,278.848 87.324,279.044 88.200 M121.636 91.636 C 121.366 92.539,121.218 93.352,121.308 93.442 C 121.398 93.532,121.693 92.866,121.964 91.964 C 122.234 91.061,122.382 90.248,122.292 90.158 C 122.202 90.068,121.907 90.734,121.636 91.636 M279.796 91.200 C 280.517 94.678,280.787 95.465,280.552 93.400 C 280.427 92.300,280.159 91.130,279.956 90.800 C 279.692 90.369,279.647 90.481,279.796 91.200 M280.868 96.800 C 280.888 97.839,281.518 99.546,281.532 98.600 C 281.538 98.160,281.389 97.440,281.200 97.000 C 280.989 96.510,280.861 96.432,280.868 96.800 M119.856 98.084 C 119.721 98.588,119.627 99.360,119.646 99.800 C 119.665 100.240,119.845 99.898,120.046 99.040 C 120.436 97.378,120.270 96.540,119.856 98.084 M282.095 103.200 C 282.095 103.750,282.232 104.740,282.400 105.400 C 282.672 106.470,282.705 106.492,282.705 105.600 C 282.705 105.050,282.568 104.060,282.400 103.400 C 282.128 102.330,282.095 102.308,282.095 103.200 M118.493 105.600 C 118.493 106.370,118.575 106.685,118.676 106.300 C 118.776 105.915,118.776 105.285,118.676 104.900 C 118.575 104.515,118.493 104.830,118.493 105.600 M283.094 110.400 C 283.214 111.830,283.377 113.075,283.456 113.167 C 283.735 113.489,283.516 109.788,283.198 108.800 C 283.005 108.200,282.963 108.840,283.094 110.400 M117.709 113.600 C 117.709 114.590,117.787 114.995,117.882 114.500 C 117.978 114.005,117.978 113.195,117.882 112.700 C 117.787 112.205,117.709 112.610,117.709 113.600 M117.293 124.000 C 117.293 128.730,117.413 133.770,117.558 135.200 C 117.704 136.630,117.762 133.030,117.687 127.200 C 117.612 121.370,117.492 116.330,117.422 116.000 C 117.351 115.670,117.293 119.270,117.293 124.000 M284.124 120.200 C 284.126 121.520,284.201 122.012,284.290 121.293 C 284.379 120.574,284.377 119.494,284.286 118.893 C 284.195 118.292,284.122 118.880,284.124 120.200 M284.531 125.400 C 284.533 126.940,284.605 127.521,284.692 126.691 C 284.779 125.861,284.777 124.601,284.689 123.891 C 284.600 123.181,284.529 123.860,284.531 125.400 M284.514 140.600 C 284.517 141.700,284.595 142.103,284.687 141.495 C 284.779 140.886,284.777 139.986,284.682 139.495 C 284.587 139.003,284.511 139.500,284.514 140.600 M284.101 144.200 C 284.105 145.080,284.187 145.393,284.283 144.895 C 284.379 144.398,284.375 143.678,284.275 143.295 C 284.175 142.913,284.096 143.320,284.101 144.200 M116.400 147.154 L 115.000 148.519 116.288 147.641 C 117.524 146.798,118.236 146.034,117.940 145.868 C 117.863 145.825,117.170 146.404,116.400 147.154 M114.033 150.147 C 113.575 150.888,113.218 151.833,113.240 152.247 C 113.277 152.945,113.299 152.942,113.541 152.200 C 113.685 151.760,114.122 150.815,114.512 150.100 C 115.444 148.391,115.097 148.425,114.033 150.147 M283.200 149.092 C 283.200 149.243,283.835 150.017,284.612 150.812 C 285.388 151.607,286.370 153.145,286.793 154.229 C 287.216 155.313,287.571 155.969,287.581 155.687 C 287.621 154.600,286.323 152.205,284.795 150.548 C 283.918 149.597,283.200 148.941,283.200 149.092 M112.537 157.800 C 112.539 159.560,112.609 160.230,112.693 159.289 C 112.778 158.349,112.777 156.909,112.691 156.089 C 112.605 155.270,112.536 156.040,112.537 157.800 M288.120 160.400 C 288.120 161.610,288.195 162.105,288.287 161.500 C 288.378 160.895,288.378 159.905,288.287 159.300 C 288.195 158.695,288.120 159.190,288.120 160.400 M113.462 164.600 C 113.596 165.480,113.772 166.275,113.853 166.367 C 114.156 166.710,113.929 164.568,113.581 163.800 C 113.329 163.242,113.293 163.485,113.462 164.600 M286.249 167.415 C 286.112 167.773,286.015 168.366,286.034 168.733 C 286.053 169.100,286.227 168.869,286.421 168.220 C 286.798 166.958,286.665 166.333,286.249 167.415 M114.501 170.600 C 114.505 171.480,114.587 171.793,114.683 171.295 C 114.779 170.798,114.775 170.078,114.675 169.695 C 114.575 169.313,114.496 169.720,114.501 170.600 M285.280 176.050 C 285.236 177.728,285.111 179.708,285.001 180.450 L 284.803 181.800 285.218 180.481 C 285.446 179.755,285.572 177.775,285.497 176.081 L 285.361 173.000 285.280 176.050 M116.423 181.055 C 116.398 181.550,118.779 186.800,119.028 186.800 C 119.218 186.800,118.757 185.623,117.458 182.800 C 116.901 181.590,116.436 180.805,116.423 181.055 M283.992 183.473 C 283.723 184.313,283.345 185.171,283.152 185.380 C 282.958 185.589,282.800 185.944,282.800 186.169 C 282.800 186.394,283.042 186.223,283.337 185.789 C 283.981 184.844,284.870 182.336,284.642 182.108 C 284.553 182.019,284.260 182.633,283.992 183.473 M280.432 191.640 C 280.337 193.553,276.529 197.078,273.319 198.223 C 272.484 198.521,272.122 198.773,272.516 198.782 C 275.105 198.846,281.370 193.246,280.665 191.499 C 280.535 191.177,280.452 191.227,280.432 191.640 M121.360 192.932 C 121.748 194.119,124.273 197.744,125.455 198.812 C 126.151 199.441,125.961 199.073,124.930 197.800 C 124.040 196.700,122.818 194.990,122.216 194.000 C 121.613 193.010,121.228 192.529,121.360 192.932 M268.685 199.100 C 268.261 199.887,267.533 203.198,267.684 203.653 C 267.778 203.935,268.091 203.058,268.378 201.704 C 268.796 199.732,269.069 199.209,269.750 199.076 C 270.591 198.911,270.591 198.908,269.724 198.854 C 269.242 198.825,268.774 198.935,268.685 199.100 M129.600 201.205 C 129.930 201.416,130.659 201.591,131.220 201.594 C 131.781 201.597,132.457 201.779,132.721 201.999 C 133.024 202.249,133.016 202.193,132.701 201.849 C 132.426 201.547,131.480 201.193,130.600 201.061 C 129.508 200.898,129.190 200.944,129.600 201.205 M267.029 205.429 C 266.881 206.015,266.838 206.572,266.932 206.666 C 267.027 206.760,267.224 206.358,267.371 205.771 C 267.519 205.185,267.562 204.628,267.468 204.534 C 267.373 204.440,267.176 204.842,267.029 205.429 M134.050 205.400 C 134.031 205.620,134.266 206.700,134.572 207.800 C 134.878 208.900,135.131 209.440,135.133 209.000 C 135.139 208.148,134.108 204.723,134.050 205.400 M266.200 209.200 C 266.048 209.891,266.007 210.541,266.109 210.642 C 266.211 210.744,266.409 210.253,266.550 209.550 C 266.691 208.847,266.731 208.198,266.641 208.108 C 266.550 208.017,266.352 208.509,266.200 209.200 M135.206 210.633 C 135.209 211.055,135.395 211.670,135.618 212.000 C 135.915 212.438,135.952 212.276,135.756 211.400 C 135.427 209.929,135.198 209.610,135.206 210.633 M265.249 213.400 C 265.216 213.840,265.096 214.650,264.983 215.200 L 264.777 216.200 265.206 215.219 C 265.442 214.679,265.561 213.869,265.472 213.419 C 265.313 212.621,265.307 212.621,265.249 213.400 M136.042 213.800 C 136.027 214.240,136.266 215.500,136.572 216.600 C 137.295 219.198,137.332 218.063,136.617 215.200 C 136.315 213.990,136.056 213.360,136.042 213.800 M137.668 221.400 C 137.662 221.840,137.811 222.560,138.000 223.000 C 138.438 224.019,138.438 222.968,138.000 221.600 C 137.743 220.796,137.677 220.757,137.668 221.400 M263.246 222.467 C 263.221 222.834,263.096 223.464,262.970 223.867 C 262.752 224.562,262.763 224.563,263.197 223.887 C 263.448 223.496,263.573 222.866,263.473 222.487 C 263.311 221.868,263.288 221.866,263.246 222.467 M138.406 224.833 C 138.409 225.365,138.589 226.070,138.806 226.400 C 139.082 226.822,139.123 226.585,138.942 225.600 C 138.625 223.875,138.398 223.549,138.406 224.833 M141.200 231.743 C 141.200 232.178,143.987 237.600,144.210 237.600 C 144.320 237.600,143.757 236.295,142.958 234.700 C 141.460 231.707,141.200 231.270,141.200 231.743 M257.578 240.698 C 256.674 242.501,256.687 242.679,257.620 241.283 C 258.104 240.559,258.417 239.883,258.315 239.782 C 258.213 239.680,257.881 240.092,257.578 240.698 M255.181 245.076 C 254.463 246.354,253.305 248.212,252.607 249.205 C 251.909 250.197,251.217 251.637,251.070 252.405 C 250.882 253.382,250.919 253.620,251.194 253.200 C 251.411 252.870,251.591 252.210,251.594 251.733 C 251.597 251.257,251.746 250.807,251.924 250.733 C 252.394 250.540,256.889 243.156,256.670 242.937 C 256.569 242.835,255.899 243.798,255.181 245.076 M148.574 255.600 C 148.574 261.210,148.630 263.505,148.699 260.700 C 148.768 257.895,148.768 253.305,148.699 250.500 C 148.630 247.695,148.574 249.990,148.574 255.600 M251.053 255.236 C 250.914 255.931,250.837 261.203,250.883 266.950 L 250.965 277.400 251.183 265.800 C 251.302 259.420,251.379 254.149,251.353 254.086 C 251.327 254.023,251.192 254.541,251.053 255.236 M148.509 282.400 C 148.509 283.390,148.587 283.795,148.682 283.300 C 148.778 282.805,148.778 281.995,148.682 281.500 C 148.587 281.005,148.509 281.410,148.509 282.400 M251.301 282.200 C 251.305 283.080,251.387 283.393,251.483 282.895 C 251.579 282.398,251.575 281.678,251.475 281.295 C 251.375 280.913,251.296 281.320,251.301 282.200 M251.668 285.000 C 251.662 285.440,251.811 286.160,252.000 286.600 C 252.438 287.619,252.438 286.568,252.000 285.200 C 251.743 284.396,251.677 284.357,251.668 285.000 M147.108 288.308 C 146.235 290.735,146.503 291.004,147.415 288.615 C 147.800 287.607,148.039 286.706,147.947 286.613 C 147.854 286.520,147.476 287.283,147.108 288.308 M252.400 287.923 C 252.400 289.936,256.879 296.107,259.788 298.102 C 260.454 298.559,259.705 297.688,258.123 296.167 C 255.941 294.069,254.902 292.678,253.823 290.411 C 253.040 288.767,252.400 287.648,252.400 287.923 M144.574 293.237 C 143.950 294.138,142.441 295.778,141.220 296.883 C 139.999 297.988,139.546 298.527,140.212 298.081 C 141.649 297.121,144.895 293.717,145.560 292.475 C 146.311 291.071,145.803 291.464,144.574 293.237 M261.200 298.989 C 261.200 299.507,269.139 304.194,269.465 303.868 C 269.542 303.791,268.929 303.386,268.102 302.967 C 267.276 302.548,265.385 301.443,263.900 300.511 C 262.415 299.579,261.200 298.894,261.200 298.989 M136.000 300.654 C 134.790 301.418,133.028 302.417,132.085 302.873 C 131.141 303.329,130.445 303.779,130.538 303.872 C 130.835 304.169,138.400 299.861,138.400 299.395 C 138.400 299.129,138.473 299.091,136.000 300.654 M128.576 304.580 C 127.827 305.140,127.832 305.152,128.706 304.932 C 129.205 304.806,129.710 304.545,129.830 304.352 C 130.168 303.804,129.436 303.938,128.576 304.580 M270.170 304.352 C 270.290 304.545,270.795 304.806,271.294 304.932 C 272.168 305.152,272.173 305.140,271.424 304.580 C 270.564 303.938,269.832 303.804,270.170 304.352 M125.000 306.238 C 123.900 306.772,123.450 307.094,124.000 306.954 C 125.142 306.662,128.007 305.227,127.400 305.251 C 127.180 305.260,126.100 305.704,125.000 306.238 M273.600 305.967 C 274.370 306.369,275.450 306.814,276.000 306.955 C 276.550 307.097,276.032 306.760,274.849 306.206 C 272.368 305.046,271.530 304.885,273.600 305.967 M120.600 308.174 C 119.500 308.703,118.712 309.151,118.849 309.168 C 119.216 309.215,122.800 307.594,122.800 307.381 C 122.800 307.116,122.780 307.124,120.600 308.174 M278.800 308.200 C 279.790 308.730,280.780 309.164,281.000 309.164 C 281.220 309.164,280.590 308.730,279.600 308.200 C 278.610 307.670,277.620 307.236,277.400 307.236 C 277.180 307.236,277.810 307.670,278.800 308.200 M115.000 310.424 C 114.560 310.628,113.143 311.253,111.850 311.814 C 110.558 312.375,109.582 312.915,109.681 313.014 C 109.844 313.177,110.795 312.780,115.200 310.709 C 115.970 310.347,116.420 310.052,116.200 310.053 C 115.980 310.053,115.440 310.221,115.000 310.424 M284.800 310.709 C 290.355 313.321,290.926 313.547,290.180 312.840 C 289.971 312.642,288.476 311.922,286.858 311.240 C 283.763 309.935,282.413 309.587,284.800 310.709 M293.400 314.294 C 293.970 314.819,299.662 317.272,299.857 317.077 C 299.946 316.988,299.160 316.548,298.109 316.100 C 297.059 315.652,295.480 314.979,294.600 314.605 C 293.720 314.232,293.180 314.091,293.400 314.294 M100.087 316.880 C 98.045 317.775,96.439 318.573,96.520 318.653 C 96.659 318.792,104.023 315.708,104.367 315.366 C 104.813 314.922,103.470 315.397,100.087 316.880 M301.600 318.000 C 302.370 318.422,303.180 318.766,303.400 318.766 C 303.620 318.766,303.170 318.422,302.400 318.000 C 301.630 317.578,300.820 317.234,300.600 317.234 C 300.380 317.234,300.830 317.578,301.600 318.000 M306.000 320.000 C 306.770 320.422,307.580 320.766,307.800 320.766 C 308.020 320.766,307.570 320.422,306.800 320.000 C 306.030 319.578,305.220 319.234,305.000 319.234 C 304.780 319.234,305.230 319.578,306.000 320.000 M89.000 321.821 C 87.900 322.348,85.940 323.240,84.646 323.802 C 83.351 324.364,82.388 324.921,82.507 325.040 C 82.625 325.158,83.055 325.072,83.461 324.848 C 83.867 324.624,85.910 323.633,88.000 322.647 C 90.090 321.660,91.620 320.855,91.400 320.858 C 91.180 320.861,90.100 321.294,89.000 321.821 M312.000 322.647 C 314.090 323.633,316.133 324.624,316.539 324.848 C 316.945 325.072,317.378 325.155,317.500 325.033 C 317.623 324.911,317.110 324.554,316.361 324.241 C 315.613 323.928,313.583 323.026,311.850 322.236 C 310.118 321.446,308.588 320.812,308.450 320.826 C 308.313 320.841,309.910 321.660,312.000 322.647 M80.000 326.000 C 79.230 326.422,78.780 326.766,79.000 326.766 C 79.220 326.766,80.030 326.422,80.800 326.000 C 81.570 325.578,82.020 325.234,81.800 325.234 C 81.580 325.234,80.770 325.578,80.000 326.000 M73.200 329.200 C 72.430 329.622,71.980 329.966,72.200 329.966 C 72.420 329.966,73.230 329.622,74.000 329.200 C 74.770 328.778,75.220 328.434,75.000 328.434 C 74.780 328.434,73.970 328.778,73.200 329.200 M66.300 332.426 C 65.035 333.079,64.000 333.703,64.000 333.812 C 64.000 333.991,68.760 331.725,69.167 331.353 C 69.690 330.873,68.298 331.394,66.300 332.426 M330.833 331.355 C 331.246 331.739,344.955 338.435,344.600 338.079 C 344.144 337.623,331.409 331.200,330.960 331.200 C 330.799 331.200,330.742 331.270,330.833 331.355 M59.100 336.024 C 56.955 337.115,55.200 338.098,55.200 338.208 C 55.200 338.386,63.160 334.530,63.567 334.154 C 64.165 333.601,62.465 334.313,59.100 336.024 M345.233 338.551 C 345.642 338.921,348.800 340.395,348.800 340.216 C 348.800 339.989,345.781 338.400,345.349 338.400 C 345.194 338.400,345.142 338.468,345.233 338.551 M350.200 341.200 C 350.860 341.637,351.580 341.995,351.800 341.996 C 352.020 341.996,351.611 341.638,350.890 341.199 C 349.192 340.163,348.636 340.164,350.200 341.200 M44.580 343.551 C 44.371 343.743,43.300 344.394,42.200 344.995 C 38.848 346.829,36.800 348.067,36.800 348.258 C 36.800 348.462,41.262 346.029,44.000 344.331 C 44.990 343.717,45.611 343.212,45.380 343.208 C 45.149 343.203,44.789 343.358,44.580 343.551 M355.011 343.741 C 355.445 344.039,356.700 344.779,357.800 345.386 C 358.900 345.993,360.565 346.937,361.500 347.483 C 362.435 348.029,363.200 348.394,363.200 348.295 C 363.200 348.076,358.583 345.200,358.232 345.200 C 358.096 345.200,357.271 344.750,356.400 344.200 C 354.757 343.163,353.621 342.788,355.011 343.741 M33.600 350.074 C 20.421 358.174,8.330 368.698,5.653 374.400 C 5.258 375.242,5.264 375.280,5.692 374.640 C 8.613 370.273,14.724 363.931,19.600 360.206 C 21.030 359.114,22.380 358.078,22.600 357.904 C 24.451 356.442,27.224 354.539,30.600 352.415 C 34.392 350.029,35.587 349.191,35.180 349.207 C 35.081 349.210,34.370 349.601,33.600 350.074 M365.326 349.724 C 365.726 349.986,368.426 351.744,371.326 353.631 C 380.515 359.609,389.837 367.950,393.298 373.291 C 393.978 374.341,394.619 375.114,394.723 375.010 C 395.524 374.209,386.475 364.586,380.200 359.566 C 376.573 356.664,365.516 349.180,364.921 349.224 C 364.744 349.236,364.927 349.461,365.326 349.724 M3.980 377.239 C 3.520 378.140,3.213 378.946,3.297 379.030 C 3.381 379.114,3.841 378.376,4.319 377.391 C 5.409 375.147,5.115 375.015,3.980 377.239 M395.681 377.391 C 396.159 378.376,396.619 379.114,396.703 379.030 C 396.884 378.849,395.268 375.600,394.997 375.600 C 394.894 375.600,395.202 376.406,395.681 377.391 M397.663 381.800 C 397.662 382.020,397.903 382.830,398.200 383.600 C 398.497 384.370,398.745 384.730,398.752 384.400 C 398.758 384.070,398.517 383.260,398.214 382.600 C 397.912 381.940,397.664 381.580,397.663 381.800 M0.653 386.671 C 0.229 388.820,-0.102 391.799,0.106 391.600 C 0.374 391.344,1.221 385.888,1.024 385.691 C 0.943 385.609,0.776 386.051,0.653 386.671 M399.073 387.200 C 399.204 388.190,399.376 389.075,399.456 389.167 C 399.757 389.514,399.528 386.964,399.190 386.200 C 398.953 385.666,398.914 385.998,399.073 387.200 " stroke="none" fill="#ececec" fill-rule="evenodd"></path></g></svg>